<svg width="24" height="24" viewBox="0 0 24 24" fill="none" xmlns="http://www.w3.org/2000/svg">
<g clip-path="url(#clip0_246_3468)">
<path d="M1.63125 0.0890615C0.890625 0.328124 0.31875 0.899999 0.09375 1.63125C0.0046875 1.92187 0 2.07656 0 6.23437C0 10.3781 0.0046875 10.5469 0.09375 10.8328C0.201563 11.1844 0.403125 11.5266 0.665625 11.7984L0.857813 11.9953L0.614063 12.2625C0.342188 12.5578 0.1875 12.8297 0.075 13.2141C0.009375 13.4437 0 13.95 0 17.7703C0 21.9094 0.0046875 22.0781 0.09375 22.3641C0.31875 23.1 0.9 23.6812 1.63125 23.9062C1.92188 23.9953 2.07656 24 6.23438 24C10.3781 24 10.5469 23.9953 10.8328 23.9062C11.1844 23.7984 11.5266 23.5969 11.8031 23.3297L12 23.1375L12.2016 23.3297C12.4734 23.5969 12.8156 23.7984 13.1672 23.9062C13.4531 23.9953 13.6219 24 17.7656 24C21.9234 24 22.0781 23.9953 22.3688 23.9062C23.1 23.6812 23.6813 23.1 23.9063 22.3641C23.9953 22.0781 24 21.9094 24 17.7656C24 13.6219 23.9953 13.4531 23.9063 13.1672C23.7984 12.8156 23.5969 12.4734 23.3297 12.2016L23.1375 12L23.3297 11.7984C23.5969 11.5266 23.7984 11.1844 23.9063 10.8328C23.9953 10.5469 24 10.3781 24 6.23437C24 2.07656 23.9953 1.92187 23.9063 1.63125C23.6813 0.899999 23.1 0.318749 22.3641 0.0937491C22.0781 0.00468655 21.9094 -9.53674e-07 17.7656 -9.53674e-07C13.6219 -9.53674e-07 13.4531 0.00468655 13.1672 0.0937491C12.8156 0.201562 12.4734 0.403124 12.2016 0.665624L12.0047 0.857812L11.7375 0.614062C11.4422 0.342187 11.1703 0.187499 10.7859 0.074999C10.5563 0.00937405 10.05 -9.53674e-07 6.21563 0.00468655C2.17031 0.00468655 1.87969 0.00937405 1.63125 0.0890615ZM10.6078 1.05C10.8703 1.14844 11.2359 1.49062 11.3672 1.75781C11.4563 1.94062 11.4609 2.08125 11.475 6.14062C11.4844 9.21562 11.475 10.3875 11.4328 10.5234C11.3156 10.9266 10.9547 11.2922 10.5234 11.4422C10.3688 11.4984 9.62344 11.5078 6.23438 11.5078C2.84531 11.5078 2.1 11.4984 1.94531 11.4422C1.53281 11.3016 1.19531 10.9687 1.02656 10.5469C0.975 10.4109 0.960938 9.68437 0.946875 6.44531C0.9375 4.0125 0.951563 2.39531 0.979688 2.2125C1.08281 1.5375 1.50938 1.09687 2.14688 0.984374C2.26875 0.965624 4.17188 0.951562 6.375 0.956249C10.1484 0.960937 10.3969 0.965624 10.6078 1.05ZM22.1391 1.05C22.4016 1.14844 22.7672 1.49062 22.8984 1.75781C22.9875 1.94062 22.9922 2.08125 23.0063 6.14062C23.0156 9.21562 23.0063 10.3875 22.9641 10.5234C22.8469 10.9266 22.4859 11.2922 22.0547 11.4422C21.9 11.4984 21.1547 11.5078 17.7656 11.5078C14.3766 11.5078 13.6313 11.4984 13.4766 11.4422C13.05 11.2922 12.7078 10.95 12.5578 10.5234C12.5016 10.3687 12.4922 9.62344 12.4922 6.23437C12.4922 2.4 12.4969 2.11875 12.5766 1.88906C12.7359 1.42969 13.1719 1.07344 13.6781 0.984374C13.8 0.965624 15.7031 0.951562 17.9063 0.956249C21.6797 0.960937 21.9281 0.965624 22.1391 1.05ZM12.2109 11.8125L12.3938 12L12.1969 12.2016L12 12.3984L11.8031 12.2016L11.6063 12L11.7891 11.8125C11.8875 11.7094 11.9859 11.625 12 11.625C12.0141 11.625 12.1125 11.7094 12.2109 11.8125ZM10.5469 12.5578C10.9594 12.7219 11.3016 13.0687 11.4281 13.4484C11.5078 13.6734 11.5078 21.8578 11.4281 22.0828C11.2969 22.4766 10.9359 22.8281 10.5234 22.9734C10.2469 23.0719 2.22188 23.0719 1.94531 22.9734C1.66875 22.875 1.37813 22.6641 1.22813 22.4391C0.951563 22.0359 0.960938 22.2234 0.960938 17.7656C0.960938 13.9312 0.965625 13.65 1.04531 13.4203C1.20938 12.9562 1.63125 12.6047 2.14219 12.5156C2.26875 12.4969 4.17188 12.4828 6.375 12.4875C9.68438 12.4922 10.4109 12.5062 10.5469 12.5578ZM22.0781 12.5578C22.5 12.7266 22.8328 13.0641 22.9734 13.4766C23.0297 13.6312 23.0391 14.3766 23.0391 17.7656C23.0391 21.1547 23.0297 21.9 22.9734 22.0547C22.8234 22.4812 22.4813 22.8234 22.0547 22.9734C21.7781 23.0719 13.7531 23.0719 13.4766 22.9734C13.0453 22.8234 12.6844 22.4578 12.5672 22.0547C12.525 21.9187 12.5156 20.7469 12.525 17.6719L12.5391 13.4766L12.6563 13.2516C12.8578 12.8531 13.2141 12.5953 13.6875 12.5156C13.8047 12.4969 15.7031 12.4828 17.9063 12.4875C21.2156 12.4922 21.9422 12.5062 22.0781 12.5578Z" fill="#AD0122"/>
<path d="M6.25776 3.8814C5.72807 3.91421 5.20307 4.16265 4.79526 4.57046C3.54839 5.81733 4.07807 7.96889 5.7562 8.48452C6.32807 8.66264 7.1812 8.57827 7.61714 8.30171L7.75776 8.21264L7.9312 8.37671C8.17026 8.60639 8.45151 8.63921 8.66245 8.46108C8.92495 8.24077 8.91089 7.96889 8.61557 7.65952L8.47495 7.50952L8.5687 7.33139C8.82651 6.82046 8.89214 6.07514 8.7187 5.52671C8.39526 4.46733 7.40151 3.8064 6.25776 3.8814ZM6.9562 4.95483C7.4437 5.12358 7.82807 5.67671 7.82807 6.21577C7.82807 6.37514 7.80464 6.56733 7.7812 6.63296L7.73432 6.75952L7.54682 6.59077C7.38745 6.45014 7.32651 6.42202 7.14839 6.42202C6.98432 6.42202 6.90464 6.45014 6.82026 6.53452C6.59057 6.76421 6.60932 7.02202 6.87182 7.30796L7.03589 7.49077L6.86245 7.54702C6.63276 7.62202 6.11245 7.58452 5.88276 7.47671C5.06245 7.08296 4.84214 6.00952 5.43745 5.32983C5.82651 4.88452 6.37495 4.74858 6.9562 4.95483Z" fill="#AD0122"/>
<path d="M16.3594 3.90469C16.2469 3.94219 16.1672 4.0125 16.111 4.125C16.036 4.275 16.0313 4.42031 16.0453 5.78906C16.0594 7.11562 16.0688 7.31719 16.1485 7.52344C16.261 7.83281 16.6875 8.25937 17.0485 8.42812C17.2922 8.54062 17.3719 8.55469 17.836 8.55469C18.3 8.55469 18.3797 8.54062 18.6235 8.42812C18.975 8.25937 19.3688 7.88906 19.5047 7.57969C19.6125 7.34062 19.6172 7.29844 19.6313 5.78906C19.6407 4.3125 19.6407 4.2375 19.5516 4.09219C19.3828 3.825 18.9797 3.80625 18.7641 4.05469C18.6563 4.17656 18.6563 4.19062 18.6563 5.62031C18.6563 7.04531 18.6563 7.06406 18.5485 7.22344C18.375 7.48125 18.1219 7.59844 17.7844 7.58437C17.5547 7.57031 17.461 7.5375 17.3203 7.43437C17.025 7.20937 17.0157 7.15312 17.0157 5.57812V4.17187L16.8891 4.03594C16.7297 3.87187 16.5797 3.83437 16.3594 3.90469Z" fill="#AD0122"/>
<path d="M5.8875 15.5436L5.76562 15.6701V17.7654V19.8607L5.88281 19.9826C6.08906 20.1842 6.37969 20.1842 6.58594 19.9826L6.70313 19.8607V17.7654V15.6701L6.58125 15.5436C6.48281 15.4451 6.4125 15.4217 6.23438 15.4217C6.05625 15.4217 5.98594 15.4451 5.8875 15.5436Z" fill="#AD0122"/>
<path d="M16.2515 15.5388C16.05 15.7404 16.05 16.0357 16.2468 16.2372C16.3968 16.3826 16.5328 16.406 17.325 16.406C17.6953 16.406 18 16.4154 18 16.4294C18 16.4388 17.5593 17.1279 17.0156 17.9622C15.914 19.6497 15.9 19.6826 16.1671 19.9779L16.3031 20.1326L17.564 20.1466C18.2531 20.156 18.914 20.1466 19.0265 20.1326C19.4578 20.0669 19.65 19.631 19.3875 19.3263L19.275 19.1951L18.3562 19.1716L17.4328 19.1482L18.4265 17.6247C18.989 16.7622 19.425 16.0404 19.439 15.9607C19.4671 15.7872 19.3546 15.5435 19.2234 15.4685C19.1671 15.4404 18.6093 15.4216 17.7515 15.4216H16.3734L16.2515 15.5388Z" fill="#AD0122"/>
</g>
<defs>
<clipPath id="clip0_246_3468">
<rect width="24" height="24" fill="white"/>
</clipPath>
</defs>
</svg>
