<svg width="24" height="24" viewBox="0 0 24 24" fill="none" xmlns="http://www.w3.org/2000/svg">
<g clip-path="url(#clip0_246_3448)">
<path d="M7.70159 1.24219C5.5594 1.81875 3.75003 2.325 3.68909 2.36719C3.34221 2.59219 3.34221 3.26719 3.6844 3.49219C3.76878 3.54844 6.47815 4.3125 6.59065 4.3125C6.60003 4.3125 6.6094 5.11406 6.6094 6.09375C6.6094 7.80469 6.61409 7.87969 6.70315 7.96875C6.84846 8.11406 7.98753 8.64844 8.58753 8.85469C9.7219 9.24375 10.6828 9.39375 11.9766 9.39375C13.3078 9.39375 14.2782 9.24375 15.4125 8.85469C16.0453 8.63906 17.025 8.175 17.2407 7.99219L17.3907 7.86562V6.08906V4.31719L17.5922 4.26562C17.7 4.2375 18.0985 4.12969 18.4735 4.02656C18.8532 3.92812 19.1766 3.84375 19.1907 3.84375C19.2047 3.84375 19.2188 4.24219 19.2188 4.72969V5.61562L19.0828 5.6625C18.8766 5.7375 18.5578 6.04687 18.4547 6.27656C18.286 6.65625 18.3516 7.20469 18.6047 7.52812C18.6938 7.64531 18.6938 7.64531 18.5719 7.93594C18.4453 8.22187 18.4453 8.23594 18.4453 9.3375C18.4453 10.3828 18.45 10.4531 18.5438 10.575C18.7688 10.8797 18.8344 10.8984 19.5938 10.8984C20.3532 10.8984 20.4188 10.8797 20.6438 10.575C20.7375 10.4531 20.7422 10.3828 20.7422 9.3375V8.22656L20.611 7.9125C20.4797 7.59375 20.4797 7.59375 20.5688 7.46719C20.9813 6.87187 20.7235 5.94375 20.0719 5.67656L19.9219 5.61562V4.64062V3.66562L20.1422 3.55781C20.4141 3.41719 20.536 3.25781 20.5641 2.99531C20.5875 2.75625 20.4797 2.51719 20.2875 2.37656C20.2172 2.325 19.5797 2.12812 18.811 1.92187C12.3094 0.173437 12.3657 0.1875 11.9766 0.192187C11.6391 0.192187 11.1938 0.3 7.70159 1.24219ZM16.0219 1.90781C18.1172 2.47031 19.8188 2.93437 19.7953 2.93906C19.7766 2.94375 18.0657 3.40312 15.9938 3.96094C13.6641 4.58437 12.1453 4.96875 12.0094 4.96875C11.8688 4.96875 10.4157 4.60312 7.97346 3.95156C4.87503 3.12187 4.18128 2.925 4.29378 2.89219C7.15784 2.09531 11.7469 0.9 11.9532 0.895312C12.1547 0.890625 13.0688 1.11562 16.0219 1.90781ZM9.80159 5.175C11.3578 5.59219 11.7094 5.67187 12 5.67187C12.2907 5.67187 12.6657 5.5875 14.4563 5.10937C15.6188 4.79531 16.5985 4.53281 16.6313 4.52344C16.6782 4.50469 16.6875 4.81406 16.6782 6.01406L16.6641 7.52344L16.1719 7.76719C14.9907 8.35781 13.3875 8.71875 11.9719 8.71875C10.5938 8.71875 8.99065 8.35312 7.81878 7.76719L7.33596 7.52344L7.3219 6.01406L7.31253 4.50469L7.62659 4.59375C7.80471 4.64062 8.77971 4.90312 9.80159 5.175ZM19.9032 6.44062C20.0766 6.61406 20.1094 6.7875 20.0063 7.00312C19.8328 7.39219 19.2328 7.35 19.0969 6.9375C19.0266 6.73125 19.0641 6.58125 19.2282 6.42187C19.4297 6.21562 19.6875 6.225 19.9032 6.44062ZM19.9688 8.23125C20.0532 8.46562 20.0625 8.57812 20.0532 9.34219L20.0391 10.1953H19.5938H19.1485L19.1344 9.34219C19.125 8.57812 19.1344 8.46562 19.2188 8.23125L19.3172 7.96875H19.5938H19.8703L19.9688 8.23125Z" fill="#AD0122"/>
<path d="M7.44844 9.51559C6.73125 9.64215 6.27188 10.1109 6.13594 10.8422C6.0375 11.3672 6.21094 12.0656 6.54375 12.5062C6.60938 12.5906 6.65625 12.6703 6.65156 12.675C6.64219 12.6843 6.47344 12.7265 6.28125 12.7734C5.68125 12.914 5.11406 13.1156 4.89844 13.2656C4.49063 13.5468 4.37813 13.8281 4.33125 14.6765C4.30313 15.164 4.28906 15.2343 4.22344 15.2109C4.05469 15.1453 3.54844 15.1312 3.27188 15.1828C2.70938 15.2953 2.35313 15.5718 2.11406 16.0781C2.00625 16.3078 1.99219 16.3922 1.99688 16.8515C1.99688 17.4422 2.09063 17.7515 2.37188 18.1218C2.47969 18.2625 2.5125 18.3375 2.475 18.3515C2.44219 18.3609 2.20313 18.4218 1.94063 18.4875C0.951563 18.7312 0.576563 18.9422 0.351563 19.3781L0.210938 19.6593V21.3234C0.210938 22.9406 0.215625 22.9968 0.309375 23.1797C0.445313 23.4328 0.6375 23.6203 0.867188 23.7234C1.04063 23.8031 1.23281 23.8125 3.67031 23.8125C5.78438 23.8125 6.31406 23.7984 6.44063 23.7468C6.68438 23.6437 6.91875 23.4093 7.03594 23.1468C7.14375 22.9031 7.14844 22.875 7.14844 21.375C7.14844 20.0437 7.13906 19.8187 7.06406 19.5797C6.89531 19.0359 6.51094 18.7781 5.48438 18.5109C5.16094 18.4265 4.88438 18.3468 4.86563 18.3328C4.84688 18.3187 4.87031 18.2578 4.9125 18.1968C4.9875 18.0984 5.01094 18.0937 5.20313 18.1359C5.54063 18.2156 10.2422 18.2015 10.4625 18.1218C10.6172 18.0656 10.6453 18.0703 10.7063 18.1359C10.8563 18.3047 10.8188 18.3328 10.2422 18.4922C9.375 18.7312 9.15 18.8297 8.90625 19.0734C8.59688 19.3828 8.54063 19.6218 8.50781 20.789C8.48906 21.3047 8.49844 22.0265 8.52188 22.3968C8.56406 23.0109 8.57344 23.0812 8.7 23.2875C8.79375 23.4328 8.925 23.5593 9.09375 23.6578L9.34688 23.8125H11.9766H14.6063L14.8547 23.6906C15.1313 23.55 15.3469 23.2968 15.4313 22.9968C15.4641 22.8703 15.4828 22.3078 15.4875 21.3515C15.4875 19.5234 15.4359 19.2937 14.9391 18.9328C14.7516 18.7968 14.0016 18.5297 13.4859 18.4172C13.3359 18.3843 13.2047 18.3422 13.1953 18.3234C13.1813 18.3047 13.2094 18.2437 13.2563 18.1828C13.3406 18.0843 13.3594 18.0843 13.5609 18.1312C13.8609 18.2109 18.4828 18.2109 18.7828 18.1312C18.9844 18.0843 19.0031 18.0843 19.0828 18.1922C19.1297 18.2531 19.1531 18.3187 19.1344 18.3328C19.1156 18.3468 18.8391 18.4265 18.5156 18.5109C17.4891 18.7781 17.1047 19.0359 16.9359 19.5797C16.8609 19.8187 16.8516 20.0437 16.8516 21.375C16.8516 22.875 16.8563 22.9031 16.9641 23.1468C17.0813 23.4093 17.3156 23.6437 17.5594 23.7468C17.6859 23.7984 18.2156 23.8125 20.3203 23.8125C23.1891 23.8125 23.1141 23.8218 23.4281 23.5172C23.5172 23.4328 23.6297 23.2828 23.6859 23.1797C23.7844 22.9968 23.7891 22.9453 23.7891 21.3281V19.664L23.6578 19.3922C23.4422 18.9609 23.1094 18.7687 22.1484 18.5109C21.8391 18.4312 21.5578 18.3562 21.525 18.3468C21.4875 18.3375 21.525 18.2578 21.6281 18.1218C21.975 17.6625 22.1297 16.8562 21.9656 16.3031C21.8203 15.7968 21.4172 15.3656 20.9625 15.2343C20.6906 15.1547 20.1516 15.1265 19.9219 15.1828C19.7766 15.2156 19.7063 15.2156 19.6828 15.1781C19.6688 15.1547 19.6406 14.8734 19.6313 14.5547C19.6125 14.0484 19.5938 13.9453 19.4813 13.7203C19.275 13.2937 18.8719 13.0687 17.8828 12.8156C17.6016 12.7453 17.3578 12.6797 17.3484 12.675C17.3391 12.6656 17.4047 12.5484 17.4938 12.4125C17.7703 11.9906 17.8359 11.7609 17.8359 11.1797C17.8359 10.6875 17.8266 10.6453 17.6813 10.3453C17.3906 9.75934 16.9125 9.49684 16.1484 9.50153C15.2109 9.5109 14.6063 10.0078 14.4844 10.8797C14.4047 11.4234 14.5734 12.089 14.8875 12.5062C14.9531 12.5906 15 12.6703 14.9953 12.675C14.9859 12.6797 14.7469 12.7453 14.4609 12.8156C13.8281 12.9797 13.3406 13.1718 13.1203 13.3593C12.8391 13.589 12.7453 13.8515 12.6891 14.5828L12.6422 15.225L12.4734 15.1968C12.2484 15.1547 11.7422 15.1547 11.5031 15.1968L11.3109 15.2343L11.2828 14.6343C11.2688 14.2547 11.2313 13.9593 11.1797 13.8187C11.0906 13.5609 10.7813 13.2562 10.4813 13.1203C10.2469 13.0172 9.15938 12.7031 9.0375 12.7031C8.9625 12.7031 8.97656 12.6656 9.1125 12.4687C9.35625 12.1172 9.47344 11.7515 9.50156 11.2922C9.55313 10.4531 9.17813 9.82965 8.48438 9.59528C8.2125 9.50622 7.72031 9.46403 7.44844 9.51559ZM8.34844 10.3125C8.90156 10.5984 8.96719 11.5172 8.47969 12.1078C8.01563 12.675 7.35 12.5578 6.98438 11.8453C6.84375 11.564 6.825 11.4797 6.825 11.189C6.825 10.664 7.01719 10.3828 7.47656 10.2328C7.71563 10.1578 8.10469 10.1906 8.34844 10.3125ZM16.4531 10.2234C16.9359 10.3359 17.1844 10.7062 17.1469 11.2687C17.0859 12.1828 16.3313 12.7359 15.7219 12.3187C15.2578 12 15.0234 11.1234 15.2766 10.65C15.3703 10.4812 15.6141 10.2984 15.8297 10.2375C16.1063 10.1625 16.1859 10.1625 16.4531 10.2234ZM8.84063 13.3781C10.2469 13.7297 10.4531 13.8234 10.5422 14.175C10.5703 14.2922 10.5938 14.6953 10.5938 15.075C10.5938 15.7312 10.5891 15.7781 10.4672 16.0265C10.35 16.2656 10.3359 16.3406 10.3266 16.8468C10.3219 17.25 10.3031 17.414 10.2563 17.4422C10.0875 17.55 10.0781 17.5078 10.0781 16.5515C10.0781 15.6843 10.0734 15.614 9.97969 15.4968C9.90469 15.4031 9.84375 15.375 9.70313 15.375C9.39375 15.375 9.375 15.4359 9.375 16.5328V17.4843H7.82813H6.28125V16.5515C6.28125 15.6843 6.27656 15.614 6.18281 15.4968C6.07031 15.3515 5.80313 15.3281 5.6625 15.4547C5.5875 15.525 5.57813 15.6187 5.57813 16.514V17.4937L5.45156 17.4609C5.37656 17.4422 5.31563 17.4281 5.31563 17.4234C5.31094 17.4187 5.32969 17.2781 5.35313 17.114C5.41406 16.725 5.33438 16.2797 5.14688 15.9234L5.00156 15.6562L5.02969 14.9297C5.04375 14.475 5.07656 14.1609 5.11875 14.0812C5.25 13.8047 5.63438 13.65 6.94219 13.3359C7.3125 13.2515 7.70156 13.1765 7.80938 13.1765C7.9125 13.1718 8.37656 13.2656 8.84063 13.3781ZM17.2594 13.4015C17.7563 13.5234 18.2906 13.6781 18.4406 13.739C18.8719 13.9125 18.8953 13.9687 18.9516 14.8828L18.9938 15.6609L18.8484 15.9328C18.6609 16.2843 18.5813 16.7672 18.6469 17.1375C18.6703 17.2875 18.6891 17.4187 18.6844 17.4234C18.6844 17.4281 18.6234 17.4422 18.5484 17.4609L18.4219 17.4937V16.5703C18.4219 15.4687 18.3938 15.375 18.0609 15.375C17.9672 15.375 17.8688 15.4125 17.8125 15.4687C17.7234 15.5578 17.7188 15.6234 17.7188 16.5234V17.4843H16.1719H14.625V16.5656C14.625 15.4734 14.5969 15.375 14.2641 15.375C14.1703 15.375 14.0719 15.4125 14.0156 15.4687C13.9266 15.5578 13.9219 15.6234 13.9219 16.5281V17.4937L13.8188 17.4656C13.7578 17.4515 13.7016 17.4375 13.6875 17.4375C13.6734 17.4375 13.6641 17.1797 13.6641 16.8609C13.6641 16.2984 13.6594 16.275 13.5047 15.9703L13.3453 15.6562L13.3781 14.939C13.4156 14.114 13.4672 13.9547 13.7531 13.7953C14.0438 13.6359 15.8109 13.1812 16.1578 13.1765C16.2656 13.1718 16.7625 13.275 17.2594 13.4015ZM4.00781 15.8953C4.51406 16.0359 4.75781 16.5047 4.64063 17.1C4.53281 17.6203 4.15781 18.0609 3.76875 18.1218C3.22031 18.2015 2.67188 17.5593 2.67188 16.8375C2.67656 16.1062 3.26719 15.689 4.00781 15.8953ZM12.5484 15.9797C12.8438 16.1484 12.9563 16.3593 12.9797 16.7859C12.9938 17.1 12.975 17.1843 12.8672 17.4328C12.7172 17.7656 12.4594 18.0187 12.1922 18.0984C11.7938 18.2156 11.3625 17.9437 11.1328 17.4328C11.025 17.1843 11.0063 17.1 11.0203 16.7859C11.0344 16.4953 11.0625 16.3875 11.1563 16.2562C11.2734 16.0828 11.4469 15.9562 11.6625 15.8859C11.8734 15.8203 12.3469 15.8672 12.5484 15.9797ZM20.6813 15.8906C21.2297 16.0453 21.4781 16.7062 21.2344 17.3531C20.9625 18.0797 20.3203 18.3422 19.8328 17.925C19.1016 17.2968 19.1813 16.125 19.9688 15.9C20.1891 15.8343 20.4703 15.8343 20.6813 15.8906ZM4.8375 19.0734C5.34375 19.2 5.87344 19.3593 6.02344 19.4297C6.44531 19.6312 6.44531 19.6265 6.44531 21.3375C6.44531 22.725 6.44063 22.7812 6.34688 22.9078C6.29531 22.9781 6.17813 23.0625 6.08906 23.0906L5.92969 23.1468L5.91563 22.1812C5.90625 21.525 5.8875 21.1968 5.85 21.15C5.68594 20.9578 5.32969 21 5.24531 21.2203C5.22188 21.2812 5.20313 21.7453 5.20313 22.2468V23.1562H3.65625H2.10938V22.1812C2.10938 21.1218 2.10469 21.1078 1.84219 21.0281C1.7625 21 1.5 21.0843 1.44375 21.1547C1.43906 21.1593 1.425 21.6093 1.41094 22.1531L1.38281 23.1375L1.22813 23.1C1.12969 23.0718 1.04063 23.0015 0.979688 22.9078C0.890625 22.7672 0.885938 22.6875 0.9 21.2812C0.914063 19.5797 0.904688 19.6218 1.34531 19.4203C1.71094 19.2515 3.34219 18.8484 3.66094 18.8437C3.825 18.8437 4.26563 18.9281 4.8375 19.0734ZM12.9094 19.0125C14.25 19.3312 14.5781 19.4672 14.7 19.7578C14.7844 19.9593 14.8313 21.5531 14.775 22.3031C14.7328 22.9406 14.6906 23.025 14.4 23.1047L14.25 23.1515V22.1953C14.25 21.3375 14.2406 21.2343 14.1609 21.1359C14.0391 20.9859 13.7578 20.9859 13.6359 21.1359C13.5563 21.2343 13.5469 21.3375 13.5469 22.2V23.1562H12H10.4531V22.2C10.4531 21.3375 10.4438 21.2343 10.3641 21.1359C10.2422 20.9859 9.96094 20.9859 9.83906 21.1359C9.75938 21.2343 9.75 21.3375 9.75 22.1953V23.1515L9.6 23.1047C9.30938 23.025 9.26719 22.9406 9.225 22.3031C9.16875 21.5531 9.21563 19.9593 9.3 19.7578C9.42188 19.4718 9.67969 19.3593 10.9922 19.0359C11.4047 18.9328 11.8453 18.8484 11.9719 18.8484C12.0984 18.8437 12.5203 18.9187 12.9094 19.0125ZM21.4875 19.0734C21.9891 19.2 22.5141 19.3547 22.6547 19.4203C23.0953 19.6218 23.0859 19.5797 23.1 21.2812C23.1141 22.6875 23.1094 22.7672 23.0203 22.9078C22.9594 23.0015 22.8703 23.0718 22.7719 23.1L22.6172 23.1375L22.5891 22.1531C22.575 21.6093 22.5609 21.1593 22.5563 21.1547C22.5 21.0843 22.2375 21 22.1578 21.0281C21.8953 21.1078 21.8906 21.1218 21.8906 22.1812V23.1562H20.3438H18.7969V22.2468C18.7969 21.7453 18.7781 21.2812 18.7547 21.2203C18.6703 21 18.3141 20.9578 18.15 21.15C18.1125 21.1968 18.0938 21.525 18.0844 22.1812L18.0703 23.1468L17.9109 23.0906C17.8219 23.0625 17.7047 22.9781 17.6531 22.9078C17.5594 22.7812 17.5547 22.7203 17.5547 21.3609C17.5547 19.7297 17.5688 19.6593 17.8734 19.4812C18.2016 19.289 19.8984 18.8531 20.3297 18.8484C20.475 18.8437 20.9391 18.9375 21.4875 19.0734Z" fill="#AD0122"/>
</g>
<defs>
<clipPath id="clip0_246_3448">
<rect width="24" height="24" fill="white"/>
</clipPath>
</defs>
</svg>
