<svg width="24" height="24" viewBox="0 0 24 24" fill="none" xmlns="http://www.w3.org/2000/svg">
<g clip-path="url(#clip0_246_3454)">
<path d="M2.23588 0.0749899C1.77651 0.182802 1.24213 0.496865 0.862443 0.867177C0.590568 1.13905 0.482756 1.28905 0.314006 1.6453C0.196818 1.88905 0.0796309 2.19843 0.0515059 2.33436C0.0140059 2.5078 -5.65597e-05 5.41874 -5.65597e-05 12.0141C-5.65597e-05 22.5375 -0.0234941 21.7219 0.337443 22.4203C0.712443 23.1422 1.48119 23.7469 2.25463 23.9297C2.70463 24.0328 21.2906 24.0375 21.7406 23.9297C22.2281 23.8125 22.8843 23.4328 23.2078 23.0812C23.5312 22.7203 23.8546 22.1062 23.9484 21.6656C24.0234 21.3141 24.0234 2.69061 23.9484 2.33436C23.8265 1.7578 23.3671 1.01718 22.9124 0.651552C22.6171 0.417177 22.0078 0.121865 21.6656 0.0515524C21.4874 0.0140524 18.6984 -1.01093e-05 11.9624 0.00467739C3.97963 0.00936489 2.46557 0.0187399 2.23588 0.0749899ZM21.2531 0.421865C22.3874 0.553115 23.2546 1.31718 23.5359 2.43749C23.6343 2.81718 23.6343 21.1734 23.5359 21.5625C23.3062 22.5047 22.6124 23.2266 21.6562 23.5172C21.4171 23.5922 20.6953 23.6016 12.3046 23.6109C6.73119 23.6203 3.05619 23.6109 2.80776 23.5828C2.29682 23.5266 1.93588 23.4 1.53744 23.1328C1.03119 22.7953 0.618693 22.2 0.464006 21.5625C0.370256 21.1969 0.365568 2.83124 0.459318 2.44218C0.599943 1.8328 0.979631 1.27499 1.49057 0.904677C1.89369 0.614052 2.23588 0.478115 2.69057 0.426552C3.19213 0.365615 20.7468 0.365615 21.2531 0.421865Z" fill="#AD0122"/>
<path d="M3.72187 2.97187L3.5625 3.13125V12V20.8687L3.72187 21.0281L3.88125 21.1875H8.97187H14.0578L14.0719 21.5531L14.0859 21.9141H17.25H20.4141V21V20.0859L18.9281 20.0719L17.4375 20.0625V19.875V19.6875L18.9281 19.6781L20.4141 19.6641L20.4281 17.2406L20.4375 14.8172L21.1781 14.8031L21.9141 14.7891L21.9281 14.6484C21.9375 14.5219 21.7125 14.2594 19.6875 12.0703L17.4375 9.6375V6.38437V3.13125L17.2781 2.97187L17.1187 2.8125H10.5H3.88125L3.72187 2.97187ZM16.9687 3.28125C17.0625 3.375 17.0625 3.43594 17.0625 6.50625V9.63281L15.7219 11.0859L14.3812 12.5391L11.9812 12.5625L9.58594 12.5859V12.75V12.9141L11.7797 12.9281C12.9844 12.9328 13.9687 12.9516 13.9687 12.9656C13.9687 12.9797 13.7437 13.2328 13.4719 13.5281L12.9703 14.0625L11.2781 14.0719L9.58594 14.0859V14.25V14.4141L11.0859 14.4375L12.5859 14.4609V14.625V14.7891L13.3266 14.8031L14.0625 14.8172V15.5625V16.3125L11.8266 16.3219L9.58594 16.3359V16.5V16.6641L11.8266 16.6781L14.0625 16.6875V17.25V17.8125L11.8266 17.8219L9.58594 17.8359V18V18.1641L11.8219 18.1781L14.0578 18.1875L14.0719 18.9281L14.0859 19.6641L15.5766 19.6781L17.0625 19.6875V19.875V20.0625L15.5766 20.0719L14.0859 20.0859L14.0719 20.4469L14.0578 20.8125H9.09375C4.18594 20.8125 4.125 20.8125 4.03125 20.7187C3.9375 20.625 3.9375 20.5641 3.9375 12C3.9375 3.43594 3.9375 3.375 4.03125 3.28125C4.125 3.1875 4.18594 3.1875 10.5 3.1875C16.8141 3.1875 16.875 3.1875 16.9687 3.28125ZM19.3078 12.2344L21.3187 14.4141L20.7375 14.4375C20.2875 14.4562 20.1422 14.475 20.1094 14.5312C20.0812 14.5734 20.0625 15.5578 20.0625 16.9547V19.3125H17.25H14.4375V16.9547C14.4375 15.5578 14.4187 14.5734 14.3906 14.5312C14.3578 14.475 14.2125 14.4562 13.7672 14.4375L13.1812 14.4141L15.2062 12.225C16.3172 11.0156 17.2406 10.0359 17.2641 10.0453C17.2828 10.05 18.2016 11.0344 19.3078 12.2344ZM20.0625 21V21.5625H17.25H14.4375V21V20.4375H17.25H20.0625V21Z" fill="#AD0122"/>
<path d="M8.20312 5.04844C8.16562 5.0625 7.82344 5.38125 7.44375 5.75625L6.75 6.44531L6.43594 6.13594C6.08437 5.79375 5.99531 5.74219 5.89219 5.82656C5.71875 5.97188 5.75156 6.04688 6.19687 6.49688C6.52031 6.82969 6.65625 6.9375 6.75 6.9375C6.91406 6.9375 8.5125 5.34375 8.46562 5.22656C8.45156 5.18438 8.4375 5.14219 8.4375 5.13281C8.4375 5.08594 8.26875 5.02969 8.20312 5.04844Z" fill="#AD0122"/>
<path d="M9.58115 5.12812C9.56708 5.16562 9.5624 5.24531 9.57177 5.30625L9.58583 5.41406H12.3749H15.164V5.25V5.08594L12.3843 5.07187C10.0077 5.0625 9.60458 5.07187 9.58115 5.12812Z" fill="#AD0122"/>
<path d="M9.58115 6.62812C9.56708 6.66562 9.5624 6.74531 9.57177 6.80625L9.58583 6.91406H12.3749H15.164V6.75V6.58594L12.3843 6.57187C10.0077 6.5625 9.60458 6.57187 9.58115 6.62812Z" fill="#AD0122"/>
<path d="M8.20312 8.79844C8.16562 8.8125 7.82344 9.13125 7.44375 9.50625L6.75 10.1953L6.43594 9.88594C6.08437 9.54375 5.99531 9.49219 5.89219 9.57656C5.71875 9.72188 5.75156 9.79688 6.19687 10.2469C6.52031 10.5797 6.65625 10.6875 6.75 10.6875C6.91406 10.6875 8.5125 9.09375 8.46562 8.97656C8.45156 8.93438 8.4375 8.89219 8.4375 8.88281C8.4375 8.83594 8.26875 8.77969 8.20312 8.79844Z" fill="#AD0122"/>
<path d="M9.58115 8.87812C9.56708 8.91562 9.5624 8.99531 9.57177 9.05625L9.58583 9.16406H12.3749H15.164V9V8.83594L12.3843 8.82187C10.0077 8.8125 9.60458 8.82187 9.58115 8.87812Z" fill="#AD0122"/>
<path d="M9.58115 10.3781C9.56708 10.4156 9.5624 10.4953 9.57177 10.5562L9.58583 10.6641H12.3749H15.164V10.5V10.3359L12.3843 10.3219C10.0077 10.3125 9.60458 10.3219 9.58115 10.3781Z" fill="#AD0122"/>
<path d="M8.20312 12.5484C8.16562 12.5625 7.82344 12.8813 7.44375 13.2563L6.75 13.9453L6.43594 13.6359C6.08437 13.2938 5.99531 13.2422 5.89219 13.3266C5.71875 13.4719 5.75156 13.5469 6.19687 13.9969C6.52031 14.3297 6.65625 14.4375 6.75 14.4375C6.91406 14.4375 8.5125 12.8438 8.46562 12.7266C8.45156 12.6844 8.4375 12.6422 8.4375 12.6328C8.4375 12.5859 8.26875 12.5297 8.20312 12.5484Z" fill="#AD0122"/>
<path d="M8.20312 16.2984C8.16562 16.3125 7.82344 16.6313 7.44375 17.0063L6.75 17.6953L6.43594 17.3859C6.08437 17.0438 5.99531 16.9922 5.89219 17.0766C5.71875 17.2219 5.75156 17.2969 6.19687 17.7469C6.52031 18.0797 6.65625 18.1875 6.75 18.1875C6.91406 18.1875 8.5125 16.5938 8.46562 16.4766C8.45156 16.4344 8.4375 16.3922 8.4375 16.3828C8.4375 16.3359 8.26875 16.2797 8.20312 16.2984Z" fill="#AD0122"/>
</g>
<defs>
<clipPath id="clip0_246_3454">
<rect width="24" height="24" fill="white"/>
</clipPath>
</defs>
</svg>
